<mxfile host="app.diagrams.net" modified="2023-09-11T12:01:33.349Z" agent="Mozilla/5.0 (Windows NT 10.0; Win64; x64) AppleWebKit/537.36 (KHTML, like Gecko) Chrome/116.0.0.0 Safari/537.36" etag="Gq170ysE4kB6kiQAcMZk" version="21.7.4" type="device">
  <diagram name="Page-1" id="Z7bHgOMU-DnD0B06KcNH">
    <mxGraphModel dx="7651" dy="3289" grid="1" gridSize="10" guides="1" tooltips="1" connect="1" arrows="1" fold="1" page="1" pageScale="1" pageWidth="827" pageHeight="1169" math="0" shadow="0">
      <root>
        <mxCell id="0" />
        <mxCell id="1" parent="0" />
        <mxCell id="71ELwNf132UY9hqVJIQ5-3" value="" style="edgeStyle=orthogonalEdgeStyle;rounded=0;orthogonalLoop=1;jettySize=auto;html=1;" edge="1" parent="1" source="71ELwNf132UY9hqVJIQ5-1" target="71ELwNf132UY9hqVJIQ5-2">
          <mxGeometry relative="1" as="geometry" />
        </mxCell>
        <mxCell id="71ELwNf132UY9hqVJIQ5-5" style="edgeStyle=orthogonalEdgeStyle;rounded=0;orthogonalLoop=1;jettySize=auto;html=1;exitX=1;exitY=0.5;exitDx=0;exitDy=0;entryX=0;entryY=0.629;entryDx=0;entryDy=0;entryPerimeter=0;" edge="1" parent="1" source="71ELwNf132UY9hqVJIQ5-1" target="71ELwNf132UY9hqVJIQ5-4">
          <mxGeometry relative="1" as="geometry" />
        </mxCell>
        <mxCell id="71ELwNf132UY9hqVJIQ5-14" style="edgeStyle=orthogonalEdgeStyle;rounded=0;orthogonalLoop=1;jettySize=auto;html=1;exitX=0.5;exitY=1;exitDx=0;exitDy=0;" edge="1" parent="1" source="71ELwNf132UY9hqVJIQ5-1" target="71ELwNf132UY9hqVJIQ5-11">
          <mxGeometry relative="1" as="geometry" />
        </mxCell>
        <mxCell id="71ELwNf132UY9hqVJIQ5-18" style="edgeStyle=orthogonalEdgeStyle;rounded=0;orthogonalLoop=1;jettySize=auto;html=1;exitX=1;exitY=0.5;exitDx=0;exitDy=0;entryX=0;entryY=0.5;entryDx=0;entryDy=0;" edge="1" parent="1" source="71ELwNf132UY9hqVJIQ5-1" target="71ELwNf132UY9hqVJIQ5-7">
          <mxGeometry relative="1" as="geometry" />
        </mxCell>
        <mxCell id="71ELwNf132UY9hqVJIQ5-19" style="edgeStyle=orthogonalEdgeStyle;rounded=0;orthogonalLoop=1;jettySize=auto;html=1;exitX=1;exitY=0.5;exitDx=0;exitDy=0;entryX=0;entryY=0.5;entryDx=0;entryDy=0;" edge="1" parent="1" source="71ELwNf132UY9hqVJIQ5-1" target="71ELwNf132UY9hqVJIQ5-10">
          <mxGeometry relative="1" as="geometry" />
        </mxCell>
        <mxCell id="71ELwNf132UY9hqVJIQ5-1" value="&lt;font style=&quot;&quot;&gt;&lt;font style=&quot;font-size: 36px;&quot;&gt;&lt;font style=&quot;&quot;&gt;Travel Agency&lt;/font&gt;&lt;br&gt;&lt;/font&gt;&lt;br&gt;&lt;font style=&quot;&quot;&gt;&lt;span style=&quot;font-size: 18px;&quot;&gt;activity list&lt;/span&gt;&lt;br&gt;&lt;font style=&quot;font-size: 18px;&quot;&gt;passenger list&lt;br&gt;&lt;/font&gt;&lt;/font&gt;&lt;/font&gt;&lt;span style=&quot;border-color: var(--border-color);&quot;&gt;&lt;font style=&quot;border-color: var(--border-color);&quot;&gt;&lt;font style=&quot;border-color: var(--border-color);&quot;&gt;&lt;font style=&quot;border-color: var(--border-color); font-size: 18px;&quot;&gt;package list&lt;br&gt;&lt;/font&gt;&lt;/font&gt;&lt;/font&gt;&lt;/span&gt;&lt;span style=&quot;border-color: var(--border-color);&quot;&gt;&lt;font style=&quot;border-color: var(--border-color);&quot;&gt;&lt;font style=&quot;border-color: var(--border-color);&quot;&gt;&lt;font style=&quot;border-color: var(--border-color); font-size: 18px;&quot;&gt;destination list&lt;br&gt;&lt;/font&gt;&lt;/font&gt;&lt;/font&gt;&lt;/span&gt;&lt;span style=&quot;border-color: var(--border-color);&quot;&gt;&lt;font style=&quot;border-color: var(--border-color);&quot;&gt;&lt;font style=&quot;border-color: var(--border-color);&quot;&gt;&lt;font style=&quot;border-color: var(--border-color); font-size: 18px;&quot;&gt;grade list&lt;br&gt;&lt;br&gt;&lt;/font&gt;&lt;/font&gt;&lt;/font&gt;&lt;/span&gt;&lt;font style=&quot;&quot;&gt;&lt;br&gt;&lt;font style=&quot;font-size: 18px;&quot;&gt;ENUM&lt;br&gt;&lt;/font&gt;&lt;font style=&quot;font-size: 18px;&quot;&gt;purchase errors&lt;/font&gt;&lt;br&gt;&lt;br&gt;&lt;br&gt;&lt;font style=&quot;font-size: 24px;&quot;&gt;methods&lt;br&gt;&lt;/font&gt;&lt;div&gt;&lt;br&gt;&lt;/div&gt;&lt;div&gt;&lt;span style=&quot;font-size: 24px;&quot;&gt;public HashMap&amp;lt;String, PassengerGrade&amp;gt; getPassengerGrades()&lt;/span&gt;&lt;/div&gt;&lt;div&gt;&lt;span style=&quot;font-size: 24px;&quot;&gt;&lt;br&gt;&lt;/span&gt;&lt;/div&gt;&lt;div&gt;&lt;span style=&quot;font-size: 24px;&quot;&gt;public boolean userExists(String email)&lt;/span&gt;&lt;/div&gt;&lt;div&gt;&lt;span style=&quot;font-size: 24px;&quot;&gt;&lt;br&gt;&lt;/span&gt;&lt;/div&gt;&lt;div&gt;&lt;span style=&quot;font-size: 24px;&quot;&gt;public void addUser(String email, String name)&lt;/span&gt;&lt;/div&gt;&lt;div&gt;&lt;span style=&quot;font-size: 24px;&quot;&gt;&lt;br&gt;&lt;/span&gt;&lt;/div&gt;&lt;div&gt;&lt;span style=&quot;font-size: 24px;&quot;&gt;public PassengerGrade getPassengerGrade(String email)&lt;/span&gt;&lt;/div&gt;&lt;div&gt;&lt;span style=&quot;font-size: 24px;&quot;&gt;&lt;br&gt;&lt;/span&gt;&lt;/div&gt;&lt;div&gt;&lt;span style=&quot;font-size: 24px;&quot;&gt;public double getBalance(String email)&lt;/span&gt;&lt;/div&gt;&lt;div&gt;&lt;span style=&quot;font-size: 24px;&quot;&gt;&lt;br&gt;&lt;/span&gt;&lt;/div&gt;&lt;div&gt;&lt;span style=&quot;font-size: 24px;&quot;&gt;public void topUpUserBalance(String email, double amount)&lt;/span&gt;&lt;/div&gt;&lt;div&gt;&lt;span style=&quot;font-size: 24px;&quot;&gt;&lt;br&gt;&lt;/span&gt;&lt;/div&gt;&lt;div&gt;&lt;span style=&quot;font-size: 24px;&quot;&gt;public void setGradeOfUser(String email, PassengerGrade grade)&lt;/span&gt;&lt;/div&gt;&lt;div&gt;&lt;span style=&quot;font-size: 24px;&quot;&gt;&lt;br&gt;&lt;/span&gt;&lt;/div&gt;&lt;div&gt;&lt;span style=&quot;font-size: 24px;&quot;&gt;public String getPassengerName(String email)&lt;/span&gt;&lt;/div&gt;&lt;div&gt;&lt;span style=&quot;font-size: 24px;&quot;&gt;&lt;br&gt;&lt;/span&gt;&lt;/div&gt;&lt;div&gt;&lt;span style=&quot;font-size: 24px;&quot;&gt;public boolean validDestination(String packageName, String destinationName)&lt;/span&gt;&lt;/div&gt;&lt;div&gt;&lt;span style=&quot;font-size: 24px;&quot;&gt;&lt;br&gt;&lt;/span&gt;&lt;/div&gt;&lt;div&gt;&lt;span style=&quot;font-size: 24px;&quot;&gt;public boolean validPackageName(String packageName)&lt;/span&gt;&lt;/div&gt;&lt;div&gt;&lt;span style=&quot;font-size: 24px;&quot;&gt;&lt;br&gt;&lt;/span&gt;&lt;/div&gt;&lt;div&gt;&lt;span style=&quot;font-size: 24px;&quot;&gt;public boolean isActivityCapacityFull(String destinationName, int activityIndex)&lt;/span&gt;&lt;/div&gt;&lt;div&gt;&lt;span style=&quot;font-size: 24px;&quot;&gt;&lt;br&gt;&lt;/span&gt;&lt;/div&gt;&lt;div&gt;&lt;span style=&quot;font-size: 24px;&quot;&gt;public boolean affordableForThisPassenger(String email, String destinationName, int activityIndex)&lt;/span&gt;&lt;/div&gt;&lt;div&gt;&lt;span style=&quot;font-size: 24px;&quot;&gt;&lt;br&gt;&lt;/span&gt;&lt;/div&gt;&lt;div&gt;&lt;span style=&quot;font-size: 24px;&quot;&gt;public boolean isPackageCapacityFull(String packageName)&lt;/span&gt;&lt;/div&gt;&lt;div&gt;&lt;span style=&quot;font-size: 24px;&quot;&gt;&lt;br&gt;&lt;/span&gt;&lt;/div&gt;&lt;div&gt;&lt;span style=&quot;font-size: 24px;&quot;&gt;public int getCapacityInPackage(String PackageName)&lt;/span&gt;&lt;/div&gt;&lt;div&gt;&lt;span style=&quot;font-size: 24px;&quot;&gt;&lt;br&gt;&lt;/span&gt;&lt;/div&gt;&lt;div&gt;&lt;span style=&quot;font-size: 24px;&quot;&gt;public int getEnrolledCountInPackage(String PackageName)&lt;/span&gt;&lt;/div&gt;&lt;div&gt;&lt;span style=&quot;font-size: 24px;&quot;&gt;&lt;br&gt;&lt;/span&gt;&lt;/div&gt;&lt;div&gt;&lt;span style=&quot;font-size: 24px;&quot;&gt;public int getEnrolledCountInActivity(String destinationName, int activityIndex)&lt;/span&gt;&lt;/div&gt;&lt;div&gt;&lt;span style=&quot;font-size: 24px;&quot;&gt;&lt;br&gt;&lt;/span&gt;&lt;/div&gt;&lt;div&gt;&lt;span style=&quot;font-size: 24px;&quot;&gt;private double toPay(String email, String destinationName, int activityIndex)&amp;nbsp;&lt;/span&gt;&lt;/div&gt;&lt;div&gt;&lt;span style=&quot;font-size: 24px;&quot;&gt;&lt;br&gt;&lt;/span&gt;&lt;/div&gt;&lt;div&gt;&lt;span style=&quot;font-size: 24px;&quot;&gt;private void purchaseActivity(String email, String destinationName, int activityIndex, String packageName)&amp;nbsp;&lt;/span&gt;&lt;/div&gt;&lt;br&gt;&lt;/font&gt;" style="rounded=0;whiteSpace=wrap;html=1;" vertex="1" parent="1">
          <mxGeometry x="-2260" y="-650" width="1370" height="1620" as="geometry" />
        </mxCell>
        <mxCell id="71ELwNf132UY9hqVJIQ5-2" value="&lt;font style=&quot;&quot;&gt;&lt;font style=&quot;font-size: 36px;&quot;&gt;Activity&amp;nbsp;&lt;br&gt;&lt;/font&gt;&lt;br&gt;&lt;font style=&quot;font-size: 18px;&quot;&gt;name&lt;br&gt;description&amp;nbsp;&lt;br&gt;cost&lt;br&gt;capacity&lt;br&gt;list&amp;nbsp; of enrolled&lt;br&gt;&lt;/font&gt;&lt;br&gt;&lt;br&gt;&lt;font style=&quot;font-size: 24px;&quot;&gt;methods&lt;/font&gt;&lt;br&gt;&lt;font style=&quot;font-size: 18px;&quot;&gt;protected double calculateAmount(Passenger passenger)&lt;br&gt;&lt;/font&gt;&lt;br&gt;&lt;/font&gt;&lt;blockquote style=&quot;margin: 0 0 0 40px; border: none; padding: 0px;&quot;&gt;&lt;font style=&quot;&quot;&gt;&lt;font style=&quot;font-size: 18px;&quot;&gt;protected boolean isCapacityFull()&lt;/font&gt;&lt;/font&gt;&lt;/blockquote&gt;&lt;blockquote style=&quot;margin: 0 0 0 40px; border: none; padding: 0px;&quot;&gt;&lt;font style=&quot;&quot;&gt;&lt;font style=&quot;font-size: 18px;&quot;&gt;&lt;br&gt;&lt;/font&gt;&lt;/font&gt;&lt;/blockquote&gt;&lt;blockquote style=&quot;margin: 0 0 0 40px; border: none; padding: 0px;&quot;&gt;&lt;font style=&quot;&quot;&gt;&lt;font style=&quot;&quot;&gt;&lt;font style=&quot;font-size: 18px;&quot;&gt;protected int totalEnrolled()&lt;/font&gt;&lt;br&gt;&lt;/font&gt;&lt;/font&gt;&lt;/blockquote&gt;&lt;font style=&quot;&quot;&gt;&lt;br&gt;&lt;font style=&quot;font-size: 18px;&quot;&gt;protected void addPassenger(String email)&lt;/font&gt;&lt;br&gt;&lt;/font&gt;" style="whiteSpace=wrap;html=1;rounded=0;" vertex="1" parent="1">
          <mxGeometry x="-290" y="-40" width="630" height="410" as="geometry" />
        </mxCell>
        <mxCell id="71ELwNf132UY9hqVJIQ5-6" style="edgeStyle=orthogonalEdgeStyle;rounded=0;orthogonalLoop=1;jettySize=auto;html=1;exitX=0.5;exitY=0;exitDx=0;exitDy=0;entryX=0.5;entryY=1;entryDx=0;entryDy=0;" edge="1" parent="1" source="71ELwNf132UY9hqVJIQ5-4" target="71ELwNf132UY9hqVJIQ5-2">
          <mxGeometry relative="1" as="geometry" />
        </mxCell>
        <mxCell id="71ELwNf132UY9hqVJIQ5-4" value="&lt;font style=&quot;&quot;&gt;&lt;font style=&quot;font-size: 36px;&quot;&gt;Destination&lt;br&gt;&lt;/font&gt;&lt;br&gt;&lt;font style=&quot;font-size: 18px;&quot;&gt;name&lt;br&gt;&lt;/font&gt;&lt;font style=&quot;font-size: 18px;&quot;&gt;list of activities&lt;br&gt;&lt;/font&gt;&lt;font style=&quot;font-size: 24px;&quot;&gt;&lt;br&gt;&lt;/font&gt;&lt;font style=&quot;font-size: 24px;&quot;&gt;methods&lt;br&gt;&lt;/font&gt;&lt;font style=&quot;font-size: 18px;&quot;&gt;protected void &lt;/font&gt;&lt;font style=&quot;font-size: 18px;&quot;&gt;addActivity(Activity activity)&lt;/font&gt;&lt;br&gt;&lt;/font&gt;" style="rounded=0;whiteSpace=wrap;html=1;" vertex="1" parent="1">
          <mxGeometry x="-100" y="510" width="250" height="320" as="geometry" />
        </mxCell>
        <mxCell id="71ELwNf132UY9hqVJIQ5-8" style="edgeStyle=orthogonalEdgeStyle;rounded=0;orthogonalLoop=1;jettySize=auto;html=1;exitX=0.5;exitY=0;exitDx=0;exitDy=0;entryX=0.5;entryY=1;entryDx=0;entryDy=0;" edge="1" parent="1" source="71ELwNf132UY9hqVJIQ5-7" target="71ELwNf132UY9hqVJIQ5-4">
          <mxGeometry relative="1" as="geometry" />
        </mxCell>
        <mxCell id="71ELwNf132UY9hqVJIQ5-7" value="&lt;font style=&quot;&quot;&gt;&lt;font style=&quot;font-size: 36px;&quot;&gt;Package&lt;br&gt;&lt;/font&gt;&lt;br&gt;&lt;font style=&quot;font-size: 18px;&quot;&gt;name&lt;br&gt;&lt;/font&gt;&lt;font style=&quot;font-size: 18px;&quot;&gt;capacity&lt;br&gt;list of destinations&lt;br&gt;list of enrolled&lt;br&gt;&lt;/font&gt;&lt;font style=&quot;font-size: 24px;&quot;&gt;&lt;br&gt;&lt;/font&gt;&lt;font style=&quot;font-size: 24px;&quot;&gt;methods&lt;br&gt;&lt;/font&gt;&lt;font style=&quot;font-size: 18px;&quot;&gt;&lt;div style=&quot;&quot;&gt;protected void addDestination(Destination destination)&amp;nbsp;&lt;/div&gt;&lt;div style=&quot;&quot;&gt;protected void addUser(String email)&amp;nbsp;&lt;/div&gt;&lt;div style=&quot;&quot;&gt;protected boolean isFullCapacity()&amp;nbsp;&lt;/div&gt;&lt;div style=&quot;&quot;&gt;protected int enrolledCount()&amp;nbsp;&lt;/div&gt;&lt;/font&gt;&lt;br&gt;&lt;/font&gt;" style="rounded=0;whiteSpace=wrap;html=1;" vertex="1" parent="1">
          <mxGeometry x="-180" y="1040" width="405" height="430" as="geometry" />
        </mxCell>
        <mxCell id="71ELwNf132UY9hqVJIQ5-13" style="edgeStyle=orthogonalEdgeStyle;rounded=0;orthogonalLoop=1;jettySize=auto;html=1;exitX=0;exitY=0.5;exitDx=0;exitDy=0;entryX=1;entryY=0.5;entryDx=0;entryDy=0;" edge="1" parent="1" source="71ELwNf132UY9hqVJIQ5-10" target="71ELwNf132UY9hqVJIQ5-11">
          <mxGeometry relative="1" as="geometry" />
        </mxCell>
        <mxCell id="71ELwNf132UY9hqVJIQ5-15" style="edgeStyle=orthogonalEdgeStyle;rounded=0;orthogonalLoop=1;jettySize=auto;html=1;exitX=1;exitY=0.5;exitDx=0;exitDy=0;entryX=1;entryY=0.5;entryDx=0;entryDy=0;shape=link;" edge="1" parent="1" source="71ELwNf132UY9hqVJIQ5-10" target="71ELwNf132UY9hqVJIQ5-2">
          <mxGeometry relative="1" as="geometry">
            <Array as="points">
              <mxPoint x="490" y="1915" />
              <mxPoint x="490" y="135" />
            </Array>
          </mxGeometry>
        </mxCell>
        <mxCell id="71ELwNf132UY9hqVJIQ5-10" value="&lt;font style=&quot;&quot;&gt;&lt;font style=&quot;font-size: 36px;&quot;&gt;Passenger&lt;/font&gt;&lt;br&gt;&lt;br&gt;&lt;font style=&quot;font-size: 18px;&quot;&gt;name&lt;br&gt;&lt;/font&gt;&lt;font style=&quot;font-size: 18px;&quot;&gt;id&lt;br&gt;balace&lt;br&gt;grade&lt;br&gt;list of activities&lt;br&gt;&lt;/font&gt;&lt;font style=&quot;font-size: 24px;&quot;&gt;&lt;br&gt;&lt;/font&gt;&lt;font style=&quot;font-size: 24px;&quot;&gt;methods&lt;br&gt;&lt;/font&gt;&lt;font style=&quot;font-size: 18px;&quot;&gt;protected void addActivity(Activity activity)&lt;/font&gt;&lt;br&gt;&lt;/font&gt;" style="rounded=0;whiteSpace=wrap;html=1;" vertex="1" parent="1">
          <mxGeometry x="-185" y="1760" width="420" height="310" as="geometry" />
        </mxCell>
        <mxCell id="71ELwNf132UY9hqVJIQ5-11" value="&lt;font style=&quot;&quot;&gt;&lt;font style=&quot;font-size: 36px;&quot;&gt;PassengerGrade&lt;br&gt;&lt;/font&gt;&lt;br&gt;&lt;font style=&quot;font-size: 18px;&quot;&gt;name&lt;br&gt;&lt;/font&gt;&lt;font style=&quot;font-size: 18px;&quot;&gt;discount&lt;br&gt;&lt;/font&gt;&lt;font style=&quot;font-size: 24px;&quot;&gt;&lt;br&gt;&lt;/font&gt;&lt;font style=&quot;font-size: 24px;&quot;&gt;methods&lt;br&gt;&lt;/font&gt;&lt;font style=&quot;font-size: 18px;&quot;&gt;public String getDescription()&lt;/font&gt;&lt;br&gt;&lt;/font&gt;" style="rounded=0;whiteSpace=wrap;html=1;" vertex="1" parent="1">
          <mxGeometry x="-1770" y="1760" width="390" height="310" as="geometry" />
        </mxCell>
      </root>
    </mxGraphModel>
  </diagram>
</mxfile>
